<mxfile host="app.diagrams.net" modified="2020-11-14T15:43:00.254Z" agent="5.0 (Windows NT 10.0; Win64; x64) AppleWebKit/537.36 (KHTML, like Gecko) Chrome/86.0.4240.193 Safari/537.36 Edg/86.0.622.68" etag="fspDU7nzDpYZVro-flJe" version="13.9.7" type="github">
  <diagram id="0rjbAF-paFFtcctBZeeb" name="Page-1">
    <mxGraphModel dx="723" dy="410" grid="1" gridSize="10" guides="1" tooltips="1" connect="1" arrows="1" fold="1" page="1" pageScale="1" pageWidth="850" pageHeight="1100" math="0" shadow="0">
      <root>
        <mxCell id="0" />
        <mxCell id="1" parent="0" />
        <mxCell id="S_Jm4G6OdrVMgnbV-L9d-10" style="edgeStyle=orthogonalEdgeStyle;rounded=0;orthogonalLoop=1;jettySize=auto;html=1;exitX=0.5;exitY=1;exitDx=0;exitDy=0;entryX=0.5;entryY=0;entryDx=0;entryDy=0;" edge="1" parent="1" source="S_Jm4G6OdrVMgnbV-L9d-2" target="S_Jm4G6OdrVMgnbV-L9d-3">
          <mxGeometry relative="1" as="geometry" />
        </mxCell>
        <mxCell id="S_Jm4G6OdrVMgnbV-L9d-34" style="edgeStyle=orthogonalEdgeStyle;rounded=0;orthogonalLoop=1;jettySize=auto;html=1;entryX=0;entryY=0.5;entryDx=0;entryDy=0;" edge="1" parent="1" source="S_Jm4G6OdrVMgnbV-L9d-2" target="S_Jm4G6OdrVMgnbV-L9d-5">
          <mxGeometry relative="1" as="geometry" />
        </mxCell>
        <mxCell id="S_Jm4G6OdrVMgnbV-L9d-2" value="Browse Course Catalogue&lt;br&gt;&lt;br&gt;1.0" style="ellipse;whiteSpace=wrap;html=1;aspect=fixed;" vertex="1" parent="1">
          <mxGeometry x="370" y="80" width="80" height="80" as="geometry" />
        </mxCell>
        <mxCell id="S_Jm4G6OdrVMgnbV-L9d-11" value="" style="edgeStyle=orthogonalEdgeStyle;rounded=0;orthogonalLoop=1;jettySize=auto;html=1;" edge="1" parent="1" source="S_Jm4G6OdrVMgnbV-L9d-3" target="S_Jm4G6OdrVMgnbV-L9d-4">
          <mxGeometry relative="1" as="geometry" />
        </mxCell>
        <mxCell id="S_Jm4G6OdrVMgnbV-L9d-31" style="edgeStyle=orthogonalEdgeStyle;rounded=0;orthogonalLoop=1;jettySize=auto;html=1;entryX=0;entryY=0.667;entryDx=0;entryDy=0;entryPerimeter=0;" edge="1" parent="1" source="S_Jm4G6OdrVMgnbV-L9d-3" target="S_Jm4G6OdrVMgnbV-L9d-6">
          <mxGeometry relative="1" as="geometry">
            <mxPoint x="630" y="240" as="targetPoint" />
          </mxGeometry>
        </mxCell>
        <mxCell id="S_Jm4G6OdrVMgnbV-L9d-3" value="Select Course(s)&lt;br&gt;&lt;br&gt;2.0" style="ellipse;whiteSpace=wrap;html=1;aspect=fixed;" vertex="1" parent="1">
          <mxGeometry x="370" y="200" width="80" height="80" as="geometry" />
        </mxCell>
        <mxCell id="S_Jm4G6OdrVMgnbV-L9d-12" style="edgeStyle=orthogonalEdgeStyle;rounded=0;orthogonalLoop=1;jettySize=auto;html=1;entryX=0.5;entryY=1;entryDx=0;entryDy=0;exitX=0;exitY=0.5;exitDx=0;exitDy=0;" edge="1" parent="1" source="S_Jm4G6OdrVMgnbV-L9d-4" target="S_Jm4G6OdrVMgnbV-L9d-8">
          <mxGeometry relative="1" as="geometry">
            <Array as="points">
              <mxPoint x="190" y="360" />
            </Array>
          </mxGeometry>
        </mxCell>
        <mxCell id="S_Jm4G6OdrVMgnbV-L9d-19" style="edgeStyle=orthogonalEdgeStyle;rounded=0;orthogonalLoop=1;jettySize=auto;html=1;entryX=0.5;entryY=0;entryDx=0;entryDy=0;" edge="1" parent="1" source="S_Jm4G6OdrVMgnbV-L9d-4" target="S_Jm4G6OdrVMgnbV-L9d-18">
          <mxGeometry relative="1" as="geometry" />
        </mxCell>
        <mxCell id="S_Jm4G6OdrVMgnbV-L9d-20" value="If Student is Registered" style="edgeLabel;html=1;align=center;verticalAlign=middle;resizable=0;points=[];" vertex="1" connectable="0" parent="S_Jm4G6OdrVMgnbV-L9d-19">
          <mxGeometry x="-0.1556" relative="1" as="geometry">
            <mxPoint as="offset" />
          </mxGeometry>
        </mxCell>
        <mxCell id="S_Jm4G6OdrVMgnbV-L9d-4" value="Register&lt;br&gt;&lt;br&gt;3.0" style="ellipse;whiteSpace=wrap;html=1;aspect=fixed;" vertex="1" parent="1">
          <mxGeometry x="370" y="320" width="80" height="80" as="geometry" />
        </mxCell>
        <mxCell id="S_Jm4G6OdrVMgnbV-L9d-35" style="edgeStyle=orthogonalEdgeStyle;rounded=0;orthogonalLoop=1;jettySize=auto;html=1;entryX=1;entryY=0.5;entryDx=0;entryDy=0;" edge="1" parent="1" source="S_Jm4G6OdrVMgnbV-L9d-5" target="S_Jm4G6OdrVMgnbV-L9d-2">
          <mxGeometry relative="1" as="geometry" />
        </mxCell>
        <mxCell id="S_Jm4G6OdrVMgnbV-L9d-5" value="Course Catalogue" style="html=1;dashed=0;whitespace=wrap;shape=partialRectangle;right=0;left=0;" vertex="1" parent="1">
          <mxGeometry x="640" y="105" width="100" height="30" as="geometry" />
        </mxCell>
        <mxCell id="S_Jm4G6OdrVMgnbV-L9d-33" style="edgeStyle=orthogonalEdgeStyle;rounded=0;orthogonalLoop=1;jettySize=auto;html=1;" edge="1" parent="1" source="S_Jm4G6OdrVMgnbV-L9d-6">
          <mxGeometry relative="1" as="geometry">
            <mxPoint x="450" y="480" as="targetPoint" />
            <Array as="points">
              <mxPoint x="810" y="235" />
              <mxPoint x="810" y="480" />
            </Array>
          </mxGeometry>
        </mxCell>
        <mxCell id="S_Jm4G6OdrVMgnbV-L9d-6" value="Course Repo" style="html=1;dashed=0;whitespace=wrap;shape=partialRectangle;right=0;left=0;" vertex="1" parent="1">
          <mxGeometry x="640" y="220" width="100" height="30" as="geometry" />
        </mxCell>
        <mxCell id="S_Jm4G6OdrVMgnbV-L9d-7" value="Registered Student DB" style="html=1;dashed=0;whitespace=wrap;shape=partialRectangle;right=0;left=0;" vertex="1" parent="1">
          <mxGeometry x="640" y="340" width="100" height="30" as="geometry" />
        </mxCell>
        <mxCell id="S_Jm4G6OdrVMgnbV-L9d-9" style="edgeStyle=orthogonalEdgeStyle;rounded=0;orthogonalLoop=1;jettySize=auto;html=1;entryX=0;entryY=0.5;entryDx=0;entryDy=0;" edge="1" parent="1" source="S_Jm4G6OdrVMgnbV-L9d-8" target="S_Jm4G6OdrVMgnbV-L9d-2">
          <mxGeometry relative="1" as="geometry">
            <mxPoint x="280" y="120" as="targetPoint" />
            <Array as="points">
              <mxPoint x="190" y="120" />
            </Array>
          </mxGeometry>
        </mxCell>
        <mxCell id="S_Jm4G6OdrVMgnbV-L9d-8" value="Student" style="html=1;dashed=0;whitespace=wrap;" vertex="1" parent="1">
          <mxGeometry x="140" y="255" width="100" height="50" as="geometry" />
        </mxCell>
        <mxCell id="S_Jm4G6OdrVMgnbV-L9d-32" style="edgeStyle=orthogonalEdgeStyle;rounded=0;orthogonalLoop=1;jettySize=auto;html=1;entryX=1;entryY=0.5;entryDx=0;entryDy=0;" edge="1" parent="1" source="S_Jm4G6OdrVMgnbV-L9d-18" target="S_Jm4G6OdrVMgnbV-L9d-6">
          <mxGeometry relative="1" as="geometry">
            <Array as="points">
              <mxPoint x="810" y="480" />
              <mxPoint x="810" y="235" />
            </Array>
          </mxGeometry>
        </mxCell>
        <mxCell id="S_Jm4G6OdrVMgnbV-L9d-18" value="Access Course(s) Content&lt;br&gt;&lt;br&gt;4.0" style="ellipse;whiteSpace=wrap;html=1;aspect=fixed;" vertex="1" parent="1">
          <mxGeometry x="370" y="440" width="80" height="80" as="geometry" />
        </mxCell>
        <mxCell id="S_Jm4G6OdrVMgnbV-L9d-29" value="" style="endArrow=classic;html=1;exitX=1;exitY=0.5;exitDx=0;exitDy=0;" edge="1" parent="1" source="S_Jm4G6OdrVMgnbV-L9d-4">
          <mxGeometry width="50" height="50" relative="1" as="geometry">
            <mxPoint x="449.03999999999996" y="349.03999999999996" as="sourcePoint" />
            <mxPoint x="630" y="360" as="targetPoint" />
          </mxGeometry>
        </mxCell>
      </root>
    </mxGraphModel>
  </diagram>
</mxfile>
